<svg width="209" height="49" viewBox="0 0 209 49" fill="none" xmlns="http://www.w3.org/2000/svg">
<path d="M25.2959 41.4507C25.2923 41.9872 25.2339 42.522 25.1216 43.0468C24.9994 43.6116 24.8183 44.1621 24.5812 44.6893C24.3284 45.2537 24.0085 45.7857 23.6284 46.2737C23.2282 46.7892 22.7522 47.2412 22.2166 47.6144C21.6307 48.0197 20.9861 48.3329 20.3052 48.543C19.5111 48.7858 18.6839 48.9033 17.8534 48.8913H8.2614C7.7274 48.8991 7.194 48.8524 6.6695 48.752C6.09393 48.6207 5.53471 48.426 5.00207 48.1716C4.43809 47.9266 3.90559 47.6148 3.41599 47.243C2.90455 46.8467 2.4543 46.3773 2.07972 45.85C1.67132 45.2558 1.35773 44.6019 1.15015 43.9115C0.907588 43.1141 0.79 42.284 0.801557 41.4507V17.4922H6.11756V41.4507C6.10334 41.7397 6.1509 42.0284 6.25709 42.2976C6.36328 42.5668 6.52565 42.8103 6.73341 43.0119C6.93718 43.2046 7.1771 43.3551 7.43934 43.4547C7.70159 43.5543 7.98097 43.6011 8.2614 43.5923H17.8534C18.1401 43.6107 18.4275 43.5685 18.6968 43.4685C18.966 43.3685 19.2112 43.2129 19.4163 43.0119C19.6108 42.8036 19.7623 42.559 19.862 42.2921C19.9617 42.0251 20.0077 41.7412 19.9973 41.4565V34.2422C20.0153 33.9559 19.9729 33.6689 19.8728 33.4C19.7727 33.131 19.6172 32.8861 19.4163 32.681C19.0019 32.2926 18.4505 32.084 17.8825 32.1006H8.2614V26.8249H17.8534C18.3887 26.8282 18.9221 26.8865 19.4453 26.999C20.0198 27.1182 20.579 27.3012 21.1128 27.5445C21.6776 27.795 22.2102 28.1127 22.6989 28.4906C23.2167 28.8883 23.6695 29.3641 24.0409 29.9009C24.4373 30.49 24.7464 31.1331 24.9589 31.8104C25.2019 32.6037 25.3195 33.4301 25.3075 34.2597L25.2959 41.4507Z" fill="#231F20"/>
<path d="M53.6131 34.1385C53.6 34.9464 53.4688 35.7481 53.2238 36.5181C52.9582 37.3793 52.5325 38.1826 51.9689 38.8861C51.3492 39.6488 50.575 40.2718 49.6972 40.7144C48.6398 41.2344 47.4708 41.4875 46.2927 41.4515H36.7064V36.4079H46.2927C46.6038 36.4258 46.9152 36.3759 47.2051 36.2616C47.495 36.1474 47.7566 35.9715 47.9717 35.7462C48.3661 35.2894 48.5736 34.7008 48.5527 34.0979C48.5674 33.7938 48.5152 33.4902 48.3997 33.2084C48.2843 32.9267 48.1085 32.6736 47.8846 32.467C47.443 32.0775 46.8699 31.8701 46.2811 31.8866H36.7064C36.3952 31.8675 36.0835 31.9169 35.7934 32.0312C35.5033 32.1455 35.2418 32.322 35.0274 32.5483C34.6329 33.0027 34.4253 33.5896 34.4464 34.1908V41.5966C34.4255 41.9017 34.4713 42.2077 34.5806 42.4933C34.69 42.779 34.8603 43.0374 35.0797 43.2507C35.5364 43.6457 36.126 43.8531 36.7297 43.8311H46.2927V48.8979H36.7064C35.8977 48.8848 35.0952 48.7538 34.3244 48.509C33.4599 48.2427 32.6536 47.8154 31.9482 47.2496C31.1876 46.63 30.5644 45.8592 30.1181 44.986C29.6022 43.9282 29.351 42.7611 29.386 41.585V34.1385C29.3971 33.3305 29.5283 32.5285 29.7753 31.759C30.0486 30.8577 30.502 30.0211 31.1082 29.2999C31.7143 28.5786 32.4606 27.9877 33.3019 27.5627C34.3601 27.0447 35.5285 26.7918 36.7064 26.8256H46.2927C47.1014 26.8391 47.9038 26.9701 48.6747 27.2145C49.538 27.4796 50.3425 27.9071 51.0451 28.4739C51.8115 29.097 52.4355 29.8767 52.8752 30.7607C53.3921 31.8101 53.6453 32.9694 53.6131 34.1385Z" fill="#231F20"/>
<path d="M57.1913 48.4155H71.1C71.6059 48.4127 72.1101 48.3582 72.6048 48.253C73.1466 48.1401 73.6745 47.9689 74.1793 47.7423C74.7088 47.5067 75.2081 47.2086 75.6666 46.8543C76.1378 46.4863 76.5494 46.0477 76.8867 45.5542C77.2602 45.0041 77.55 44.4017 77.7465 43.7666C77.973 43.0139 78.0827 42.231 78.0719 41.4451C78.0588 40.6684 77.9316 39.898 77.6942 39.1583C77.438 38.3385 77.0323 37.573 76.4974 36.9006C75.9167 36.1703 75.183 35.576 74.3478 35.1594C73.3323 34.6881 72.2189 34.4652 71.1 34.5094H62.8501H62.4492C62.2465 34.5044 62.0477 34.4527 61.8682 34.3585C61.6753 34.2536 61.5176 34.0941 61.415 33.9C61.3 33.677 61.2364 33.4311 61.2291 33.1803C61.2198 33.0392 61.2198 32.8977 61.2291 32.7566C61.2503 32.5461 61.3287 32.3454 61.4557 32.1762C61.6051 31.9866 61.8072 31.8452 62.0367 31.77C62.301 31.6751 62.581 31.6317 62.8617 31.6423H75.3935V27.3184H62.8501C62.1839 27.3286 61.5226 27.4341 60.8863 27.6318C60.1881 27.8463 59.536 28.1887 58.9633 28.6416C58.353 29.1354 57.854 29.7525 57.4992 30.4525C57.0875 31.3159 56.8883 32.265 56.9182 33.2209C56.9285 33.8447 57.0343 34.4632 57.232 35.055C57.4486 35.7199 57.7919 36.3368 58.2429 36.8716C58.7454 37.4677 59.3641 37.9554 60.0613 38.3051C60.9262 38.7085 61.8726 38.9071 62.8268 38.8855H71.1C72.721 38.8855 73.6564 39.8026 73.7377 41.4741C73.7709 41.8324 73.7239 42.1937 73.6 42.5316C73.4762 42.8696 73.2786 43.1757 73.0217 43.428C72.7647 43.6802 72.4548 43.8722 72.1144 43.99C71.774 44.1078 71.4117 44.1485 71.0536 44.109H57.1913V48.4155Z" fill="#008080"/>
<path d="M87.8384 48.4156H92.2306V31.6481H101.526V27.3184H92.2306V20.11H87.8384V27.3184H80.9247V31.6481H87.8384V48.4156Z" fill="#008080"/>
<path d="M129.199 34.1385C129.188 34.9467 129.057 35.7487 128.81 36.5181C128.546 37.3802 128.12 38.184 127.555 38.8861C126.935 39.6488 126.161 40.2718 125.283 40.7144C124.226 41.2344 123.057 41.4875 121.879 41.4515H112.292V36.4079H121.879C122.19 36.4262 122.501 36.3764 122.791 36.2622C123.081 36.1479 123.343 35.9718 123.558 35.7462C123.952 35.2894 124.159 34.7008 124.139 34.0979C124.154 33.7937 124.103 33.4897 123.987 33.2078C123.872 32.9258 123.695 32.6729 123.47 32.467C123.029 32.0775 122.456 31.8701 121.867 31.8866H112.292C111.981 31.8652 111.669 31.9123 111.378 32.0246C111.086 32.137 110.824 32.3117 110.607 32.5367C110.213 32.9911 110.005 33.578 110.026 34.1792V41.5966C110.009 41.9039 110.06 42.2112 110.174 42.497C110.288 42.7828 110.464 43.04 110.689 43.2507C111.146 43.6447 111.735 43.8519 112.339 43.8311H121.879V48.8979H112.292C111.484 48.8848 110.681 48.7538 109.91 48.509C109.047 48.2439 108.242 47.8164 107.54 47.2496C106.776 46.6332 106.152 45.8616 105.71 44.986C105.189 43.9296 104.936 42.7619 104.972 41.585V34.1385C104.983 33.3305 105.114 32.5285 105.361 31.759C105.632 30.8597 106.082 30.0244 106.684 29.3033C107.286 28.5822 108.028 27.9901 108.864 27.5627C109.923 27.0447 111.091 26.7918 112.269 26.8256H121.855C122.664 26.8391 123.466 26.9701 124.237 27.2145C125.101 27.4796 125.905 27.9071 126.608 28.4739C127.371 29.0903 127.995 29.8619 128.438 30.7375C128.966 31.7918 129.228 32.9597 129.199 34.1385Z" fill="#231F20"/>
<path d="M156.558 34.1384C156.545 34.9463 156.413 35.748 156.168 36.518C155.903 37.3804 155.475 38.1841 154.908 38.886C154.29 39.648 153.518 40.271 152.642 40.7143C151.584 41.2343 150.415 41.4873 149.237 41.4513H139.657V36.4078H149.249C149.559 36.4264 149.87 36.3768 150.159 36.2625C150.448 36.1482 150.709 35.9719 150.922 35.7461C151.316 35.2893 151.524 34.7007 151.503 34.0978C151.519 33.7941 151.468 33.4906 151.353 33.2088C151.239 32.927 151.064 32.6738 150.841 32.4669C150.399 32.0774 149.826 31.87 149.237 31.8865H139.657C139.346 31.8679 139.036 31.9175 138.747 32.0318C138.458 32.1461 138.197 32.3224 137.984 32.5482C137.589 33.0026 137.381 33.5895 137.403 34.1907V41.5964C137.385 41.9037 137.436 42.2111 137.55 42.4969C137.665 42.7827 137.84 43.0399 138.065 43.2506C138.52 43.6447 139.107 43.852 139.709 43.8309H149.26V48.8977H139.657C138.848 48.8837 138.046 48.7528 137.275 48.5089C136.413 48.2413 135.608 47.814 134.904 47.2494C134.142 46.6321 133.518 45.8607 133.074 44.9859C132.556 43.9286 132.303 42.7615 132.336 41.5848V34.1384C132.35 33.3306 132.482 32.5291 132.726 31.7588C132.994 30.8975 133.421 30.0942 133.986 29.3908C134.607 28.6311 135.378 28.0085 136.252 27.5626C137.311 27.0453 138.479 26.7923 139.657 26.8255H149.249C150.058 26.8395 150.86 26.9705 151.631 27.2144C152.493 27.482 153.297 27.9092 154.001 28.4738C154.762 29.0934 155.385 29.8642 155.831 30.7373C156.345 31.7957 156.594 32.9627 156.558 34.1384Z" fill="#231F20"/>
<path d="M181.069 28.4392C181.281 28.9205 181.342 29.4548 181.243 29.9714C181.149 30.4883 180.902 30.9652 180.535 31.3412L168.247 43.599H181.028V48.9096H161.856C161.326 48.9135 160.807 48.7511 160.374 48.4452C159.944 48.1556 159.601 47.7543 159.381 47.2845C159.178 46.7963 159.126 46.2588 159.23 45.7406C159.333 45.2104 159.599 44.7254 159.991 44.3535L172.192 32.1363H159.41V26.8257H178.629C179.149 26.823 179.658 26.9723 180.093 27.2552C180.535 27.538 180.876 27.9522 181.069 28.4392Z" fill="#231F20"/>
<path d="M208.997 34.1385C208.986 34.9467 208.855 35.7487 208.607 36.5181C208.344 37.3802 207.918 38.184 207.352 38.8861C206.733 39.6488 205.959 40.2718 205.081 40.7144C204.023 41.2344 202.854 41.4875 201.676 41.4515H192.09V36.4079H201.676C201.987 36.4262 202.299 36.3764 202.589 36.2622C202.879 36.1479 203.14 35.9718 203.355 35.7462C203.75 35.2894 203.957 34.7008 203.936 34.0979C203.952 33.7937 203.9 33.4897 203.785 33.2078C203.669 32.9258 203.493 32.6729 203.268 32.467C202.827 32.0775 202.253 31.8701 201.665 31.8866H192.078C191.767 31.8675 191.455 31.9169 191.165 32.0312C190.875 32.1455 190.614 32.322 190.399 32.5483C190.005 33.0027 189.797 33.5896 189.818 34.1908V41.5966C189.801 41.9039 189.851 42.2112 189.966 42.497C190.08 42.7828 190.256 43.04 190.481 43.2507C190.938 43.6447 191.527 43.8519 192.131 43.8311H201.676V48.8979H192.09C191.281 48.8848 190.479 48.7538 189.708 48.509C188.845 48.2439 188.04 47.8164 187.338 47.2496C186.574 46.6332 185.95 45.8616 185.507 44.986C184.987 43.9296 184.734 42.7619 184.77 41.585V34.1385C184.781 33.3305 184.912 32.5285 185.159 31.759C185.432 30.8577 185.886 30.0211 186.492 29.2999C187.098 28.5786 187.844 27.9877 188.685 27.5627C189.744 27.0447 190.912 26.7918 192.09 26.8256H201.676C202.485 26.8391 203.287 26.9701 204.058 27.2145C204.922 27.4796 205.726 27.9071 206.429 28.4739C207.192 29.0903 207.816 29.8619 208.259 30.7375C208.779 31.7939 209.033 32.9616 208.997 34.1385Z" fill="#231F20"/>
<path d="M104.094 7.37646C104.222 10.1333 103.432 14.7358 97.169 16.5002C97.169 16.5002 104.24 15.7921 103.56 25.9199C103.56 25.9199 105.541 15.9372 111.612 15.8618C111.583 15.8676 105.762 15.4265 104.094 7.37646Z" fill="#008080"/>
<path d="M93.0205 4.91541C93.0844 6.35477 92.6719 8.76339 89.401 9.68621C89.401 9.68621 93.0961 9.31476 92.7242 14.6137C92.7242 14.6137 93.7642 9.39021 96.9364 9.35539C96.9364 9.35539 93.892 9.12323 93.0205 4.91541Z" fill="#008080"/>
<path d="M101.95 0C102 0.560762 101.839 1.12001 101.499 1.56859C101.158 2.01717 100.663 2.32287 100.109 2.42603C100.109 2.42603 101.991 2.24031 101.805 4.93331C101.805 4.93331 102.328 2.27513 103.943 2.25772C103.943 2.25772 102.398 2.14164 101.95 0Z" fill="#008080"/>
</svg>
