<?xml version="1.0" encoding="utf-8"?>
<!-- Generator: Adobe Illustrator 22.0.0, SVG Export Plug-In . SVG Version: 6.00 Build 0)  -->
<svg version="1.1" id="Layer_1" xmlns="http://www.w3.org/2000/svg" xmlns:xlink="http://www.w3.org/1999/xlink" x="0px" y="0px"
	 viewBox="0 0 2592 2592" style="enable-background:new 0 0 2592 2592;" xml:space="preserve">
<style type="text/css">
	.st0{display:none;fill:#FEFEFE;}
	.st1{fill:#07528F;}
	.st2{fill:#FDFEFE;}
	.st3{fill:#FDFDFE;}
	.st4{fill:#FCFDFD;}
	.st5{fill:#F9FCFD;}
	.st6{fill:#FAFDFD;}
	.st7{fill:#F7FBFC;}
	.st8{fill:#FEFEFE;}
	.st9{fill:#FCFDFE;}
</style>
<g>
	<path class="st0" d="M-5.8,1224.3c0-189.7,0-379.3,0-569c868.9,0,1737.7,0,2606.7,0c0,327.7,0,655.4,0,983.3
		c-868.8,0-1737.8,0-2606.7,0c0-137.5,0-275.2,0-412.9c15.8,1.6,31.5,3,47.2,4.9c42.5,5,84.9,10.2,127.4,15.2
		c38.4,4.6,76.8,9,115.3,13.5c43.7,5.1,87.3,10.3,131,15.5c11.8,1.4,23.7,3,35.8,4.5c-0.3,6.1-0.5,11.4-0.9,16.6
		c-1.8,24.7-3.7,49.4-5.2,74.1c-0.1,2.4,1.8,6.2,3.8,7.2c18.4,8.5,37.3,15.5,57.4,18.4c15.5,2.3,29.3-4.6,36.4-17.8
		c7.5-14,6.3-28.6-3.4-38.9c-2.7-2.9-6.1-5.1-9.6-8c17.2-8.8,19.9-22.9,14.4-40.9c20.7,2.6,40.4,5.1,60.1,7.7
		c-15.4,8.4-25.9,20.3-31.9,35.9c-8.5,22-10.5,44.8-5.8,68c5.2,26,21.2,40.9,48.4,45.7c26.2,4.6,48-4.8,61.4-26.5
		c21.7-35.1,17.8-84.8-9.6-115.8c16,1.5,31.4,2.9,47.4,4.4c-0.7,30.1-1.4,59.4-2.2,88.7c-0.7,26.7-1.7,53.3-2.4,80
		c0,1.7,1.2,4.4,2.6,5c10.8,4.9,21.8,9.5,33.8,14.6c0.9-26.4,1.7-51.6,2.6-76.7c6.4-1.4,10.4,1.2,13,6.1c1.7,3.2,3.1,6.5,4.1,10
		c6,20,12.5,39.9,17.3,60.2c2.9,12.1,8.5,19.1,20.8,21.8c8.9,2,17.4,5.8,27,9.1c-0.2-2.6-0.2-3.8-0.4-4.9
		c-6.3-25.9-12.5-51.9-19.2-77.6c-3.2-12.1-7.4-24-17.8-30.8c34.9-25.1,32.1-58.4,20.5-94.6c26.8,3.3,53.3,6.6,79.9,9.9
		c-16.6,9.9-26.3,24-33.5,40.1c-8,17.7-12.1,36.4-14.3,55.6c-3.5,29.6-3.8,59,5.1,87.9c4.8,15.5,12.1,29.5,27.5,37.2
		c35.1,17.8,80.3-7,83.9-46.2c1.7-18.4,2.9-36.9,4.3-55.3c0.5-6.1,1-12.3,1.5-19c-19.6-1.2-38.3-2.3-57.5-3.4
		c-1.2,15.5-2.4,30.5-3.6,46.1c8.6,0.5,16.4,0.9,24.2,1.4c1.1,17.6-2.5,24.9-15.1,30.9c-11,5.2-22.1,2.1-27.7-8.8
		c-2.8-5.4-5.4-11.8-5.4-17.7c-0.1-19.9,0.3-39.8,2-59.6c1.1-12.4,4.6-24.6,13.2-34.5c10.1-11.6,24.6-9.3,30.6,4.8
		c1.9,4.5,2.8,9.5,4.3,14.6c10.9-2.8,21.5-5.8,32.2-8.3c4.5-1,4.2-3.8,3.7-7c-2.5-17.4-5.3-34.7-18.4-49.4
		c22.9,3.7,44.6,7.3,67.1,10.9c-15.6,78.4-31.1,156.2-46.7,234.5c12.3,3.9,24,7.7,36.3,11.7c2.4-16.3,4.7-31.7,7.1-47.7
		c12.1,5.3,23.3,10.7,34.9,15.3c5.2,2.1,7.3,5.2,8.3,10.4c2.6,14.2,5.6,28.3,8.6,42.3c0.4,1.9,1.3,4.9,2.7,5.4
		c13.3,5,26.8,9.7,41.6,14.9c-16.4-93.9-32.5-186.2-48.9-279.7c21.7,3.6,42,7.5,62.4,10.2c7.7,1,11,4.5,13.2,11.5
		c4.6,15.1,11.9,28.9,22.9,40.5c7.4,7.8,15.9,12.1,27.3,12c72.4-0.4,144.9-0.5,217.4,0c13.4,0.1,23-5.1,31.3-14.6
		c10.3-11.8,16.6-25.8,21.4-40.5c1.7-5.1,4-8.1,9.9-8.6c6.4-0.5,12.7-2.4,19.1-3.3c18.3-2.7,36.5-5.3,54.8-8l0.2,0.2
		c-19.5,18.8-29.1,42.6-34.2,68.5c-6.3,31.9-6.3,64.1-2.8,96.3c2.5,24,7.6,47.5,18.1,69.5c9.3,19.5,21.7,36.5,44.1,41.5
		c53.1,11.8,96.6-28.1,94.2-77c-1.2-24-1.8-48-2.6-72.1c-0.2-5.5,0-10.9,0-17.4c-25.1,1.2-49,2.3-72.3,3.4c0,20,0,39.3,0,58.2
		c11.4,0,21.3,0,32.2,0c0,6.2-0.5,12.2,0.1,18.1c0.6,5.3-0.8,9.4-4.8,12.8c-3.3,2.8-6.3,6-9.8,8.5c-13.1,9.4-28.9,7.2-37.9-6.2
		c-4.4-6.6-7.9-14.5-9.7-22.2c-7.1-29.8-8.2-60.1-3.9-90.3c1.5-10.8,5.7-22.1,11.6-31.3c9.8-15.5,29.2-13.9,38,2.2
		c3.1,5.6,5,11.8,7.8,18.4c14.6-5.6,29.5-11.3,44.2-16.9c-5.5-39.6-19.1-61.4-47.2-75.4c33.8-5.4,66.9-10.7,100.6-16.1
		c-18.6,22.5-22.5,28.7-27,47.3c-10.3,41.9-8.6,83.9-0.6,125.9c4,21,11,40.9,24.8,57.7c20.4,24.8,59.7,24.1,79.1-1.4
		c9.5-12.5,14.7-27,17.8-42.2c7-35.3,5.8-70.8,1.1-106.3c-2.6-19.8-7.8-39.1-17.8-56.8c-7.1-12.5-16.5-22.6-31-29.3
		c34.5-3.7,67.2-7.2,101.1-10.9c-16.7,15.5-23,25.2-29.1,46.2c-8.4,28.8-9,58.3-5.9,87.9c2.1,20.3,7.5,39.7,19.5,56.7
		c18.8,26.5,59,30.7,81.9,8.6c11.2-10.8,17.7-24.5,21.8-39.3c7.2-26,8.9-52.7,6.6-79.4c-2.8-33.6-9.1-66.2-44.2-85.4
		c20.8-2.3,39.9-4.5,60.3-6.8c3.6,64.4,7.2,128,10.7,192.2c24.6-8.7,50.5-16.9,75.6-26.9c17.1-6.8,28.1-20.7,30.9-39.1
		c2.3-14.9,3.1-30.1,2.8-45.2c-0.5-23-4-45.6-16.7-65.6c-8.3-13-19.3-21.9-35.5-22.7c-1,0-1.9-1.2-3.6-2.3c29.7-3.6,58.3-7,89-10.7
		c-2.6,2-3.5,2.7-4.4,3.4c-23,18.2-20.6,53.2,5.2,67.2c8.7,4.7,18.8,7.1,28.3,10.4c6.1,2.1,13,2.9,18.2,6.4
		c3.8,2.5,7.5,8.4,7.3,12.6c-0.2,4.2-4.5,9.8-8.5,11.9c-10.4,5.4-22.1,0.4-27.1-10.3c-1.7-3.6-2.7-7.6-4.1-11.6
		c-12.3,1.3-24.4,2.6-36.4,3.9c1.1,22.6,14.3,40.9,33,45.9c15.6,4.2,31.5,4.1,47.1,0.2c20.2-5.1,32.8-20,34.8-42.7
		c1.5-17.6-4.9-33.7-23.3-42.7c-7.3-3.6-15.3-5.7-23.1-8.1c-7.8-2.4-16-3.5-23.6-6.5c-3-1.2-6.5-6-6.4-9c0.1-3.1,3.8-7.3,7-8.8
		c9.4-4.3,19.7,0.6,23.6,10.2c0.9,2.1,1.7,4.3,2.5,6.5c12.5-1.3,24.4-2.4,38.6-3.8c-4.3-9.5-6.6-18.4-11.9-25
		c-5.4-6.7-13.7-10.9-21-16.4c135.9-16.1,272.2-32.2,408.5-48.3c-4-1.3-8-1.5-11.9-1.3c-23,1.4-46.1,2.9-69.1,4.4
		c-31.4,2.1-62.8,4.1-94.3,6.3c-39.6,2.7-79.1,5.5-118.7,8.2c-31.2,2.1-62.4,4.1-93.5,6.3c-47,3.2-94,6.5-141,9.7
		c-30.9,2.1-61.9,4.1-92.8,6.2c-47.5,3.2-94.9,6.6-142.4,9.8c-30.5,2.1-60.9,4-91.4,6.1c-47,3.2-94,6.4-141,9.7
		c-25.9,1.8-51.8,3.5-77.7,5.5c-16.7,1.3-33.1,2.9-46.1-11.2c-3.9-4.2-7-2.8-10,2.1c-9.3,15.4-18.3,31.1-28.9,45.6
		c-20.3,27.8-46.8,47.6-81,55.5c-27.2,6.3-54.8,6.4-82.4,2.4c-26.1-3.7-48.6-14.3-67.8-32.5c-18.1-17.3-32.1-37.7-45.3-58.7
		c-3.7-5.8-7.2-11.7-11.3-18.3c-6.3,4.3-11.6,8.3-17.4,11.7c-3.6,2.1-7.9,4.8-11.8,4.6c-29-1.5-58-3.6-87.1-5.6
		c-47.2-3.2-94.5-6.6-141.7-9.8c-30.7-2.1-61.4-4-92.1-6.1c-48.4-3.3-96.9-6.6-145.3-9.9c-29.7-2-59.5-4-89.2-6
		c-47.5-3.3-94.9-6.6-142.4-9.8c-30.5-2.1-60.9-4-91.4-6.1c-47.7-3.2-95.4-6.6-143.1-9.8c-23.5-1.6-47-3.2-70.5-4.7
		C67.6,1228.8,30.9,1226.5-5.8,1224.3z M861.2,1127.1c-0.1,0.5-0.2,1-0.3,1.6c19.4,3.1,38.8,6.2,58.1,9.4
		c67.8,10.9,135.6,21.9,203.5,32.7c4.1,0.7,5.7,2,5.7,6.3c0,8.6,0.4,17.3,1.1,25.9c3.3,40.6,18.8,76.1,47.5,104.9
		c40.6,40.7,90.2,56.2,147,47.9c68.1-9.9,126.1-66.2,137.6-134.1c2.3-13.7,2.2-27.7,3.2-41.6c0.3-4.4,0.5-8.3,6.6-9.2
		c50.8-8,101.5-16.3,152.2-24.5c36.5-5.9,72.9-11.9,109.4-17.8c-2.6-1-5.1-1.1-7.6-1c-18.2,0.9-36.5,1.9-54.7,2.9
		c-29.5,1.6-59,3.2-88.6,4.9c-39.1,2.2-78.2,4.5-117.3,6.9c-4.5,0.3-6.4-1.6-7.8-5.5c-2.6-7-5.1-14.1-8.5-20.6
		c-25.1-47.7-62.7-79.6-116.1-91.4c-5.4-1.2-7.7-3.4-8.2-9.4c-2.5-30.7-5.8-61.2-8.7-91.9c-4.2-43.3-8.4-86.6-12.5-129.9
		c-3.6-38.3-7-76.6-10.6-114.9c-0.6-6.3-1.5-12.6-2.2-18.9c-1.8,8.4-2.5,16.7-2.9,25c-1.6,29.8-3.1,59.5-4.8,89.3
		c-3.2,57.1-6.5,114.2-9.7,171.3c-1.3,22.8-2.4,45.6-3.2,68.4c-0.3,6.8-3.2,9.5-9.8,11.5c-14.4,4.4-29.2,8.7-42.4,15.7
		c-38,20.3-64.1,51.6-79.1,92c-2.5,6.7-5.5,9.7-13.4,9.1c-41.2-2.8-82.5-5-123.8-7.3c-22.1-1.3-44.1-2.7-66.2-3.9
		C910.2,1129.6,885.7,1128.4,861.2,1127.1z"/>
	<path class="st1" d="M-5.8,1224.3c36.7,2.3,73.4,4.5,110.1,6.8c23.5,1.5,47,3.1,70.5,4.7c47.7,3.3,95.4,6.6,143.1,9.8
		c30.5,2.1,60.9,4,91.4,6.1c47.5,3.2,94.9,6.6,142.4,9.8c29.7,2,59.5,4,89.2,6c48.4,3.3,96.9,6.6,145.3,9.9
		c30.7,2.1,61.4,4,92.1,6.1c47.2,3.2,94.5,6.6,141.7,9.8c29,2,58,4.1,87.1,5.6c3.9,0.2,8.1-2.4,11.8-4.6c5.8-3.4,11.1-7.4,17.4-11.7
		c4.1,6.6,7.6,12.5,11.3,18.3c13.2,21,27.1,41.4,45.3,58.7c19.1,18.2,41.7,28.7,67.8,32.5c27.6,4,55.2,3.8,82.4-2.4
		c34.1-7.9,60.6-27.6,81-55.5c10.6-14.5,19.6-30.2,28.9-45.6c3-5,6.1-6.4,10-2.1c12.9,14.1,29.4,12.5,46.1,11.2
		c25.9-2,51.8-3.7,77.7-5.5c47-3.2,94-6.5,141-9.7c30.5-2.1,60.9-4,91.4-6.1c47.5-3.2,94.9-6.6,142.4-9.8
		c30.9-2.1,61.9-4.1,92.8-6.2c47-3.2,94-6.5,141-9.7c31.2-2.1,62.4-4.1,93.5-6.3c39.6-2.7,79.1-5.5,118.7-8.2
		c31.4-2.1,62.8-4.2,94.3-6.3c23-1.5,46.1-3,69.1-4.4c3.9-0.2,7.9,0,11.9,1.3c-136.3,16.1-272.6,32.3-408.5,48.3
		c7.3,5.5,15.6,9.8,21,16.4c5.3,6.6,7.6,15.5,11.9,25c-14.2,1.4-26,2.6-38.6,3.8c-0.8-2.1-1.6-4.3-2.5-6.5
		c-3.9-9.6-14.2-14.5-23.6-10.2c-3.2,1.4-6.8,5.7-7,8.8c-0.1,3,3.3,7.8,6.4,9c7.5,3,15.8,4.1,23.6,6.5c7.8,2.3,15.8,4.5,23.1,8.1
		c18.3,9.1,24.8,25.1,23.3,42.7c-2,22.8-14.5,37.6-34.8,42.7c-15.6,3.9-31.5,4-47.1-0.2c-18.7-5-31.9-23.3-33-45.9
		c12-1.3,24.1-2.6,36.4-3.9c1.4,4,2.5,8,4.1,11.6c5,10.8,16.7,15.8,27.1,10.3c4-2.1,8.3-7.7,8.5-11.9c0.2-4.2-3.5-10.1-7.3-12.6
		c-5.2-3.4-12.1-4.2-18.2-6.4c-9.5-3.3-19.5-5.7-28.3-10.4c-25.8-14-28.2-48.9-5.2-67.2c0.9-0.7,1.8-1.4,4.4-3.4
		c-30.6,3.7-59.3,7.1-89,10.7c1.7,1.1,2.6,2.3,3.6,2.3c16.2,0.8,27.3,9.7,35.5,22.7c12.7,20,16.2,42.6,16.7,65.6
		c0.3,15-0.5,30.3-2.8,45.2c-2.8,18.3-13.8,32.3-30.9,39.1c-25.1,10-51,18.2-75.6,26.9c-3.6-64.2-7.1-127.7-10.7-192.2
		c-20.5,2.3-39.5,4.5-60.3,6.8c35.1,19.3,41.4,51.8,44.2,85.4c2.2,26.7,0.6,53.4-6.6,79.4c-4.1,14.8-10.6,28.4-21.8,39.3
		c-22.9,22.1-63.1,17.9-81.9-8.6c-12-16.9-17.4-36.3-19.5-56.7c-3.1-29.6-2.5-59.1,5.9-87.9c6.1-21,12.5-30.8,29.1-46.2
		c-34,3.7-66.7,7.2-101.1,10.9c14.5,6.6,24,16.7,31,29.3c10,17.7,15.1,36.9,17.8,56.8c4.7,35.4,5.9,70.9-1.1,106.3
		c-3,15.2-8.2,29.7-17.8,42.2c-19.4,25.5-58.7,26.2-79.1,1.4c-13.8-16.8-20.9-36.7-24.8-57.7c-8-41.9-9.7-84,0.6-125.9
		c4.6-18.6,8.4-24.8,27-47.3c-33.7,5.4-66.8,10.7-100.6,16.1c28.1,14,41.7,35.8,47.2,75.4c-14.7,5.6-29.6,11.3-44.2,16.9
		c-2.7-6.6-4.7-12.8-7.8-18.4c-8.8-16.1-28.2-17.7-38-2.2c-5.8,9.2-10,20.5-11.6,31.3c-4.3,30.2-3.1,60.5,3.9,90.3
		c1.8,7.8,5.3,15.6,9.7,22.2c9,13.4,24.8,15.6,37.9,6.2c3.5-2.5,6.5-5.7,9.8-8.5c4-3.4,5.4-7.4,4.8-12.8c-0.6-5.9-0.1-11.9-0.1-18.1
		c-10.9,0-20.9,0-32.2,0c0-18.9,0-38.2,0-58.2c23.3-1.1,47.2-2.2,72.3-3.4c0,6.5-0.2,12,0,17.4c0.8,24,1.4,48.1,2.6,72.1
		c2.4,48.9-41.2,88.8-94.2,77c-22.5-5-34.8-22-44.1-41.5c-10.5-21.9-15.5-45.5-18.1-69.5c-3.4-32.2-3.5-64.4,2.8-96.3
		c5.1-25.9,14.7-49.7,34.2-68.5c0.2-0.4,0.4-0.7,0.5-1.1c-0.2,0.3-0.5,0.6-0.7,0.9c-18.3,2.7-36.5,5.2-54.8,8
		c-6.4,1-12.7,2.8-19.1,3.3c-5.9,0.4-8.2,3.5-9.9,8.6c-4.8,14.7-11,28.7-21.4,40.5c-8.3,9.5-17.9,14.7-31.3,14.6
		c-72.4-0.5-144.9-0.4-217.4,0c-11.5,0.1-20-4.2-27.3-12c-11-11.6-18.3-25.4-22.9-40.5c-2.1-7-5.5-10.4-13.2-11.5
		c-20.4-2.8-40.7-6.6-62.4-10.2c16.3,93.5,32.4,185.8,48.9,279.7c-14.8-5.2-28.3-9.9-41.6-14.9c-1.4-0.5-2.2-3.4-2.7-5.4
		c-3-14.1-6-28.2-8.6-42.3c-1-5.2-3.1-8.3-8.3-10.4c-11.6-4.6-22.9-9.9-34.9-15.3c-2.4,16-4.7,31.4-7.1,47.7
		c-12.3-4-24-7.7-36.3-11.7c15.6-78.3,31.1-156.1,46.7-234.5c-22.5-3.7-44.2-7.2-67.1-10.9c13.1,14.6,16,31.9,18.4,49.4
		c0.5,3.2,0.8,6-3.7,7c-10.7,2.5-21.4,5.4-32.2,8.3c-1.5-5.1-2.4-10.1-4.3-14.6c-5.9-14.2-20.5-16.4-30.6-4.8
		c-8.6,9.8-12.2,22.1-13.2,34.5c-1.7,19.8-2.1,39.7-2,59.6c0,5.9,2.6,12.3,5.4,17.7c5.6,10.8,16.8,14,27.7,8.8
		c12.6-6,16.2-13.3,15.1-30.9c-7.7-0.4-15.6-0.9-24.2-1.4c1.2-15.7,2.4-30.6,3.6-46.1c19.3,1.1,37.9,2.3,57.5,3.4
		c-0.5,6.7-1,12.8-1.5,19c-1.4,18.5-2.7,36.9-4.3,55.3c-3.6,39.2-48.7,64-83.9,46.2c-15.3-7.8-22.7-21.7-27.5-37.2
		c-8.9-28.9-8.5-58.3-5.1-87.9c2.2-19.2,6.3-37.9,14.3-55.6c7.3-16.1,16.9-30.2,33.5-40.1c-26.6-3.3-53.2-6.6-79.9-9.9
		c11.5,36.3,14.3,69.5-20.5,94.6c10.3,6.8,14.6,18.7,17.8,30.8c6.8,25.8,12.9,51.7,19.2,77.6c0.3,1.1,0.2,2.3,0.4,4.9
		c-9.5-3.3-18.1-7.2-27-9.1c-12.3-2.7-17.9-9.7-20.8-21.8c-4.8-20.3-11.4-40.2-17.3-60.2c-1-3.4-2.4-6.8-4.1-10
		c-2.6-4.9-6.6-7.5-13-6.1c-0.8,25.1-1.7,50.2-2.6,76.7c-12.1-5.1-23-9.7-33.8-14.6c-1.4-0.6-2.6-3.3-2.6-5
		c0.7-26.7,1.6-53.3,2.4-80c0.8-29.3,1.5-58.6,2.2-88.7c-16-1.5-31.4-2.9-47.4-4.4c27.4,31,31.3,80.7,9.6,115.8
		c-13.5,21.7-35.2,31.1-61.4,26.5c-27.1-4.8-43.2-19.7-48.4-45.7c-4.6-23.2-2.6-46,5.8-68c6-15.6,16.5-27.5,31.9-35.9
		c-19.7-2.5-39.4-5-60.1-7.7c5.6,18,2.8,32.1-14.4,40.9c3.5,2.9,6.9,5.1,9.6,8c9.7,10.3,10.9,24.9,3.4,38.9
		c-7.1,13.2-20.9,20.1-36.4,17.8c-20.2-2.9-39.1-9.9-57.4-18.4c-2-0.9-3.9-4.8-3.8-7.2c1.5-24.7,3.5-49.4,5.2-74.1
		c0.4-5.2,0.6-10.5,0.9-16.6c-12.2-1.5-24-3.1-35.8-4.5c-43.7-5.2-87.3-10.4-131-15.5c-38.4-4.5-76.9-9-115.3-13.5
		c-42.5-5-84.9-10.2-127.4-15.2c-15.7-1.8-31.5-3.3-47.2-4.9C-5.8,1225.2-5.8,1224.8-5.8,1224.3z M1766.5,1459.6
		c-1.2-20.6-1.6-41.1-9.1-60.6c-4.6-12-13.1-19.5-21.4-18.6c-11.8,1.2-17,10.1-18.8,20c-2.5,13.8-4,28-4.3,42.1
		c-0.4,20.2,0.7,40.5,8.2,59.6c5.3,13.5,12.3,18.9,22.1,18.3c8.7-0.5,16.3-7.8,18.8-21C1764.5,1486.4,1765.1,1472.9,1766.5,1459.6z
		 M1911.1,1414.4c-0.6-0.1-1.2-0.1-1.8-0.2c0-6.7,1-13.7-0.2-20.1c-1.9-9.5-4.1-19.4-8.6-27.8c-7.1-13.1-23.7-13.1-32.1-0.9
		c-3,4.4-6,9.8-6.6,15c-1.9,18.3-3.6,36.7-3.8,55.1c-0.1,11.4,2,23,9.2,32.8c8.9,12,24.2,12.1,32.6-0.3c2.4-3.5,4.6-7.6,5.3-11.7
		C1907.5,1442.4,1909.2,1428.3,1911.1,1414.4z M2009.7,1441.8c16.1,1.1,30.5-8.4,33.6-22.9c4.3-19.7,3.3-39.7-1-59.3
		c-4.3-20-15.9-26.8-36.6-21.9C2007,1372.2,2008.4,1406.9,2009.7,1441.8z M653.2,1365.6c-0.5-0.1-1.1-0.2-1.6-0.3
		c0-3.6,0.2-7.2,0-10.8c-1.1-14.2-8.7-23.1-20.9-24.6c-10.5-1.3-19.9,5.7-24.4,18.5c-5,14.4-5.6,29.3-3.8,44.1
		c1.5,11.8,9.5,19.6,19.8,20.8c10.6,1.3,19.9-4,23.8-15.7C649.5,1387.4,650.9,1376.3,653.2,1365.6z M749.6,1345
		c0,11.5,0.7,21.8-0.2,31.9c-0.7,7.6,2.5,10.5,9,11.8c1.9,0.4,3.7,1,5.6,1.4c9,1.7,15.5-1.6,17.4-10.6c1.5-7.4,2.1-15.3,1-22.7
		c-0.5-3.7-5.2-8.5-8.9-9.6C766.4,1345.3,758.9,1345.8,749.6,1345z M1037.8,1415.1c-0.5,0-0.9-0.1-1.4-0.1
		c-4.5,26.8-9,53.7-13.5,81.1c8.5,3.3,16.7,6.4,25.9,10C1045,1475.1,1041.4,1445.1,1037.8,1415.1z M478.3,1364.3
		c7.3,2,14.1,4.2,21,5.6c5.7,1.1,11.8-3.4,13.1-8.7c2.2-9,0-15.3-7.3-16.9c-7.7-1.8-15.8-2.1-24.1-3.1
		C480.1,1349.3,479.3,1356.1,478.3,1364.3z M484.6,1297.4c-0.6,7.7-1.2,14.4-1.8,22.4c7.5,0,14.4,0.3,21.2-0.1
		c5.7-0.4,8.2-4.6,8.5-9.9c0.3-5.6-2.5-9.4-8-10.3C498.1,1298.5,491.7,1298.1,484.6,1297.4z"/>
	<path class="st1" d="M861.2,1127.1c24.5,1.2,48.9,2.4,73.4,3.8c22.1,1.2,44.1,2.6,66.2,3.9c41.3,2.4,82.6,4.5,123.8,7.3
		c7.9,0.5,11-2.4,13.4-9.1c15-40.4,41.1-71.7,79.1-92c13.2-7,28-11.4,42.4-15.7c6.6-2,9.5-4.7,9.8-11.5c0.9-22.8,2-45.6,3.2-68.4
		c3.2-57.1,6.5-114.2,9.7-171.3c1.7-29.8,3.2-59.5,4.8-89.3c0.5-8.3,1.1-16.6,2.9-25c0.7,6.3,1.6,12.6,2.2,18.9
		c3.6,38.3,7,76.6,10.6,114.9c4.1,43.3,8.3,86.6,12.5,129.9c3,30.6,6.2,61.2,8.7,91.9c0.5,6.1,2.8,8.2,8.2,9.4
		c53.3,11.8,91,43.7,116.1,91.4c3.4,6.6,5.9,13.7,8.5,20.6c1.4,3.9,3.3,5.7,7.8,5.5c39.1-2.4,78.2-4.6,117.3-6.9
		c29.5-1.7,59-3.3,88.6-4.9c18.2-1,36.5-1.9,54.7-2.9c2.5-0.1,5,0,7.6,1c-36.5,5.9-72.9,11.9-109.4,17.8
		c-50.7,8.2-101.5,16.5-152.2,24.5c-6,1-6.3,4.8-6.6,9.2c-1,13.9-0.9,27.9-3.2,41.6c-11.5,67.9-69.5,124.2-137.6,134.1
		c-56.9,8.3-106.4-7.2-147-47.9c-28.7-28.8-44.2-64.3-47.5-104.9c-0.7-8.6-1.1-17.3-1.1-25.9c0-4.3-1.6-5.7-5.7-6.3
		c-67.8-10.8-135.7-21.8-203.5-32.7c-19.4-3.1-38.8-6.2-58.1-9.4C861,1128.2,861.1,1127.7,861.2,1127.1z M1382.4,1166.3
		c0-14.7,0-28.7,0-42.7c-24.2,0-47.3,0-70.5,0c0,14.4,0,28.4,0,42.7C1335.9,1166.3,1359.1,1166.3,1382.4,1166.3z M1281.4,1123.6
		c-24.3,0-47.5,0-70.8,0c0,14.4,0,28.4,0,42.6c23.7,0,46.8,0,70.8,0C1281.4,1151.9,1281.4,1138.1,1281.4,1123.6z M1166.9,1169
		c12.4,0,24.1,0,35.6,0c0-16,0-31.6,0-47.2c-0.7-0.3-1.4-0.6-2.1-0.9C1183.8,1132.7,1172.2,1148.1,1166.9,1169z M1425.1,1169.1
		c-0.1-16-22.3-46.3-33.7-46.7c0,15.5,0,31,0,46.7C1403.1,1169.1,1414.1,1169.1,1425.1,1169.1z"/>
	<path class="st2" d="M1766.5,1459.6c-1.5,13.3-2.1,26.8-4.6,40c-2.5,13.2-10,20.5-18.8,21c-9.8,0.6-16.8-4.8-22.1-18.3
		c-7.5-19.2-8.5-39.4-8.2-59.6c0.2-14.1,1.7-28.3,4.3-42.1c1.8-9.9,7-18.8,18.8-20c8.4-0.9,16.9,6.6,21.4,18.6
		C1764.9,1418.5,1765.3,1438.9,1766.5,1459.6z"/>
	<path class="st2" d="M1911.1,1414.4c-2,14-3.7,28-6.1,41.9c-0.7,4.1-2.9,8.2-5.3,11.7c-8.4,12.4-23.8,12.3-32.6,0.3
		c-7.2-9.8-9.3-21.4-9.2-32.8c0.1-18.4,1.8-36.8,3.8-55.1c0.5-5.2,3.5-10.5,6.6-15c8.4-12.3,25-12.2,32.1,0.9
		c4.6,8.4,6.7,18.3,8.6,27.8c1.3,6.5,0.2,13.4,0.2,20.1C1909.9,1414.2,1910.5,1414.3,1911.1,1414.4z"/>
	<path class="st3" d="M2009.7,1441.8c-1.3-34.9-2.7-69.6-4-104.1c20.7-4.9,32.3,1.9,36.6,21.9c4.3,19.6,5.3,39.6,1,59.3
		C2040.2,1433.4,2025.8,1443,2009.7,1441.8z"/>
	<path class="st3" d="M653.2,1365.6c-2.3,10.7-3.7,21.7-7.1,32.1c-3.9,11.7-13.2,16.9-23.8,15.7c-10.3-1.2-18.3-9-19.8-20.8
		c-1.8-14.9-1.2-29.8,3.8-44.1c4.5-12.7,13.9-19.7,24.4-18.5c12.2,1.5,19.8,10.4,20.9,24.6c0.3,3.6,0,7.2,0,10.8
		C652.1,1365.4,652.7,1365.5,653.2,1365.6z"/>
	<path class="st4" d="M749.6,1345c9.3,0.7,16.9,0.3,23.8,2.3c3.7,1.1,8.3,5.9,8.9,9.6c1.1,7.4,0.5,15.3-1,22.7
		c-1.8,8.9-8.4,12.3-17.4,10.6c-1.9-0.4-3.7-1-5.6-1.4c-6.5-1.3-9.7-4.2-9-11.8C750.3,1366.8,749.6,1356.5,749.6,1345z"/>
	<path class="st5" d="M1037.8,1415.1c3.6,30,7.2,60,11,90.9c-9.2-3.5-17.4-6.7-25.9-10c4.6-27.4,9.1-54.3,13.5-81.1
		C1036.9,1415,1037.3,1415.1,1037.8,1415.1z"/>
	<path class="st6" d="M478.3,1364.3c1-8.1,1.8-15,2.8-23.2c8.3,1,16.3,1.3,24.1,3.1c7.3,1.7,9.5,7.9,7.3,16.9
		c-1.3,5.4-7.4,9.9-13.1,8.7C492.4,1368.5,485.6,1366.2,478.3,1364.3z"/>
	<path class="st7" d="M484.6,1297.4c7.1,0.7,13.5,1,19.8,2.1c5.5,0.9,8.3,4.7,8,10.3c-0.3,5.3-2.7,9.5-8.5,9.9
		c-6.8,0.5-13.7,0.1-21.2,0.1C483.4,1311.8,484,1305.1,484.6,1297.4z"/>
	<path class="st8" d="M1540.9,1357c0.2-0.3,0.5-0.6,0.7-0.9c-0.2,0.4-0.4,0.7-0.5,1.1C1541.1,1357.2,1540.9,1357,1540.9,1357z"/>
	<path class="st2" d="M1382.4,1166.3c-23.3,0-46.5,0-70.5,0c0-14.3,0-28.3,0-42.7c23.1,0,46.3,0,70.5,0
		C1382.4,1137.6,1382.4,1151.6,1382.4,1166.3z"/>
	<path class="st8" d="M1281.4,1123.6c0,14.5,0,28.3,0,42.6c-24,0-47.2,0-70.8,0c0-14.2,0-28.2,0-42.6
		C1234,1123.6,1257.1,1123.6,1281.4,1123.6z"/>
	<path class="st2" d="M1166.9,1169c5.4-20.9,17-36.3,33.5-48.1c0.7,0.3,1.4,0.6,2.1,0.9c0,15.6,0,31.2,0,47.2
		C1190.9,1169,1179.3,1169,1166.9,1169z"/>
	<path class="st9" d="M1425.1,1169.1c-11,0-22,0-33.7,0c0-15.8,0-31.3,0-46.7C1402.8,1122.7,1425,1153.1,1425.1,1169.1z"/>
</g>
</svg>
