<svg xmlns="http://www.w3.org/2000/svg" viewBox="0 0 575.2 396.51"><defs><style>.cls-1{fill:#f33a24;}</style></defs><g id="Layer_2" data-name="Layer 2"><g id="Layer_1-2" data-name="Layer 1"><path class="cls-1" d="M525.61,131.1c-16.06,6.53-32.05,13.2-48.17,19.56q-77,30.38-154,60.45c-10.65,4.14-21.94,7.46-33.45,5.35-9.64-1.77-19.44-4.26-28.32-8.31-34.2-15.59-68-32-102-48-32.65-15.36-65.1-31.21-99.5-42.47-15.93-5.21-32-9.45-49-8.89-6.44.22-8.13-1.59-8.56-8.07C1.52,86.28,2,71.93,5.73,57.8c6.16-23.09,21.81-36.94,43.46-45.07A160.75,160.75,0,0,1,99.55,3C117.43,2.26,135.31,1.15,153.2,1Q281,.26,408.85,0c11.42,0,22.87.22,34.27,1C470.28,2.9,497.39,5,523,15.74c14,5.86,27.28,12.9,38.71,23,6.42,5.65,10.78,12.69,11,21.54.82,28.65,1.91,57.31,2.18,86,.41,44.62.26,89.24.27,133.86,0,11.49.2,23-.66,34.44-.82,11-2,22.06-4.66,32.67-4.24,16.75-16.56,26.83-32.5,31.31a328.48,328.48,0,0,1-47.94,9.93c-21.57,2.71-43.35,3.86-65.07,5.25-16,1-32.08,1.73-48.13,1.91-46.75.53-93.51,1-140.26.93-26.88-.05-53.82-.23-80.61-2.15C122.66,392,89.8,390,57.84,381.69c-13.2-3.45-26-7.79-37.32-15.83A41.71,41.71,0,0,1,3,337.46a230.94,230.94,0,0,1-3-34.91c-.14-44.95.26-89.9.51-134.84,0-8.53,3.53-11.19,12.55-12,10.43-1,18.2,3.61,25.4,10.15,2.95,2.68,6,5.28,8.74,8.18a6.73,6.73,0,0,1,1.65,4.26c.07,36.12-.15,72.25.15,108.37a113.36,113.36,0,0,0,3,24.74c4.45,18.95,19.77,26.28,36.37,30.84a343.1,343.1,0,0,0,41.12,8.23c13.94,2,28.05,3.11,42.12,4.09,14.49,1,29,1.83,43.56,2,42.73.49,85.47.68,128.21.83q17.63.08,35.24-.79c16.64-.78,33.33-1.3,49.87-3.11,21.8-2.38,43.8-3.89,64.86-10.87,14.94-5,26.23-13.59,29.62-29.87,1.18-5.64,2.38-11.4,2.43-17.12.52-53.91.79-107.83,1.13-161.74,0-.66-.1-1.32-.14-2Zm-2-51.35c.32-.69.65-1.39,1-2.09-2.67-3.17-4.94-6.81-8.07-9.44-13.11-11-28.83-16.68-45-21.21-25.69-7.2-52.17-7.54-78.46-7.76-68.62-.59-137.25-.26-205.87-.19-9.61,0-19.22.53-28.83.89-17.22.64-34.5.63-51.63,2.23a223.38,223.38,0,0,0-37.35,7C59.08,52,51,58.42,48.54,69.78c-2,9.42.09,10.7,7.14,10.18,15.33-1.11,30.15,1.75,44.65,6.48,31.91,10.42,61.7,25.69,91.89,40,23.47,11.16,46.75,22.74,70.47,33.34a105.62,105.62,0,0,0,27.38,7.72c13.9,2,27-2.91,39.63-8Q426.78,119.89,523.63,79.75Z"/></g></g></svg>