<svg xmlns="http://www.w3.org/2000/svg" viewBox="0 0 346.26 655.97"><defs><style>.cls-1{fill:#cf423e;}</style></defs><g id="Layer_2" data-name="Layer 2"><g id="Layer_1-2" data-name="Layer 1"><path class="cls-1" d="M221.83,655.77l-101,.19H103.26V359H0V241.53H103V235c-.06-26.15-.69-52.32,0-78.45.51-19.24,1.82-38.52,6.77-57.33,5.73-21.77,15.87-41.64,31.25-57.58s35.2-26.28,57.14-31.92a231.78,231.78,0,0,1,53.46-7c16.73-.33,33.45-1.35,50.17-2.06l6.07-.7h38.38V110.8c-3.85,0-7.63,0-11.4,0-11.33,0-22.68-.39-34,.25-15.33.87-30.74,1.76-45.9,4.09-18,2.77-26.67,16.32-29.13,32.48-4.52,29.71-2.42,59.65-3.1,89.49-.1,4.6,2.64,4.07,5.5,4.07H341.37c-1,8.43-1.84,16.24-2.83,24-1.16,9.12-2.45,18.23-3.67,27.35-1.11,8.31-2.24,16.62-3.3,24.93-1.24,9.79-2.41,19.58-3.61,29.37-.4,3.27-.41,6.66-1.37,9.76-.34,1.08-3,2-4.63,2.05-27.65.12-55.31.08-83,.08H222.82V645.37c0,3.16-.11,6.32-.16,9.48C222.38,655.16,222.11,655.47,221.83,655.77Z"/></g></g></svg>