<svg xmlns="http://www.w3.org/2000/svg" viewBox="0 0 346.01 654.77"><defs><style>.cls-1{fill:#f33a24;}</style></defs><g id="Layer_2" data-name="Layer 2"><g id="Layer_1-2" data-name="Layer 1"><path class="cls-1" d="M0,357.69V241H103.61c0-3.37,0-6.14,0-8.92.1-30-.34-60,.47-90s7.72-58.22,24.15-83.93c15.47-24.22,37.63-38.83,64.42-47,14.13-4.31,28.46-8,43.53-8.15,13.19-.09,26.38-1.31,39.57-1.85,11.93-.49,23.86-.86,35.79-1,11.39-.18,22.78,0,34.47,0V109.81c-2,0-3.75,0-5.54,0-14.66.11-29.35-.37-44,.51a423.63,423.63,0,0,0-45,5c-13.88,2.34-21.07,12.75-24.34,25.52-2,7.68-2.59,15.79-3.12,23.75-.72,10.91-.89,21.85-1.09,32.78-.23,12.87-.1,25.76-.43,38.63-.11,4,1.18,5,5.09,5,35.83-.13,71.65-.08,107.48-.08h6.26c-1,7.76-1.9,14.88-2.84,22-.85,6.47-1.75,12.93-2.62,19.4q-1.83,13.57-3.65,27.14C331.14,318,330,326.61,329,335.2c-.78,6.5-1.21,13.05-2.19,19.51-.17,1.12-2.3,2.69-3.58,2.75-7,.3-14,.23-21,.23H222.81V654.77H103.61v-5.86q0-142.49.11-284.95c0-5-1.16-6.44-6.31-6.4-29.49.27-59,.13-88.48.13Z"/></g></g></svg>