<svg xmlns="http://www.w3.org/2000/svg" viewBox="0 0 413.72 393.19"><defs><style>.cls-1{fill:#f33a25;}.cls-2{fill:#f33b25;}</style></defs><g id="Layer_2" data-name="Layer 2"><g id="Layer_1-2" data-name="Layer 1"><path class="cls-1" d="M280.8,393c-49.61,0-99.23.55-148.83-.25-22.25-.37-44.52-2.42-66.42-7.56-30.93-7.25-49-26.65-56.24-57a252.22,252.22,0,0,1-7.13-51.47C1.78,262.49.47,248.27.37,234,.12,197-.42,159.92.61,122.9c.58-20.75,2-41.59,7-62.06,7.7-31.2,28.32-47.17,58.61-53a346.94,346.94,0,0,1,61.69-5.93c20.1-.23,40.19-.62,60.29-1C203.15.64,218.09,0,233,0c17.26,0,34.54.32,51.79,1,15.69.62,31.39,1.5,47,3,14.31,1.39,28.44,4,41.57,10.51,16.94,8.37,26.4,22.74,30.62,40.3,3.23,13.43,4.9,27.33,6.23,41.12,4.45,46,3.55,92.25,3.08,138.42-.17,16.22-.6,32.49-2.1,48.63a382.27,382.27,0,0,1-6.9,46.19c-6.66,30.43-26.62,48.41-56.52,54.67-17.14,3.58-34.75,4.95-52.16,7.2-4.91.64-9.88.86-14.81,1.28ZM139.56,34.52c-5.25.51-10,.88-14.76,1.46-13.43,1.64-27,2.51-40.23,5.29C69,44.55,55.85,52.25,47.88,67c-7.54,14-10,29.29-11.35,44.66-1.43,16.63-1.87,33.38-1.77,50.08.18,32.19,1.16,64.38,1.55,96.57a209.92,209.92,0,0,0,6.12,46.91c6.06,25,20.53,41.48,46.24,48,18.93,4.78,38.16,6.33,57.37,6.55,40.39.47,80.81-.47,121.21-.76a252.3,252.3,0,0,0,55.8-6.14c24.7-5.77,42.14-19.79,47.78-45.22a309.49,309.49,0,0,0,6.25-44.56c1.41-19.37,2.05-38.84,1.84-58.26-.31-28.72-1.38-57.44-2.71-86.14a236.42,236.42,0,0,0-4.13-34.37c-4.74-24.13-18.91-40.25-43.6-44.43-18.06-3.07-36.45-4.59-54.76-5.64-19.25-1.1-38.59-1.15-57.89-1C190.25,33.32,164.67,34.05,139.56,34.52Z"/><path class="cls-2" d="M117.22,197.37c-.39-49.05,38.83-86.23,81.53-89.47,59.72-4.53,98,43.71,97.66,88.79C296,246,258.24,286.63,206.79,286.8A89,89,0,0,1,117.22,197.37ZM206.69,134c-32.19-2-64.26,25.34-64,63.4.29,35.78,27.29,62.3,61.39,63.39,41.09,1.31,66.24-31.18,66.41-63.33C270.73,160.36,238.23,131.48,206.69,134Z"/><path class="cls-2" d="M315.52,72c12.62-.06,22.86,8.87,22.88,19.93,0,16.71-9.06,27.63-23.38,27-14-.67-23.27-10.41-23.56-23.91C291.18,82.57,303.21,70,315.52,72Z"/></g></g></svg>