<svg xmlns="http://www.w3.org/2000/svg" viewBox="0 0 393.95 393.41"><defs><style>.cls-1{fill:#cf423f;}.cls-2{fill:#cf433f;}</style></defs><g id="Layer_2" data-name="Layer 2"><g id="Layer_1-2" data-name="Layer 1"><path class="cls-1" d="M392.9,233.06c-.78,15.95-.94,32-2.49,47.84-1.83,18.76-4.71,37.37-12.3,55-8.54,19.82-23.13,33-42.82,40.92-16.93,6.78-34.74,9.92-52.77,12.2-43.84,5.55-87.88,4.67-131.85,3.66a431.76,431.76,0,0,1-60.11-6c-19.72-3.26-38.79-9.34-54.43-23C24.31,353.25,16.78,340,13,325.28a353,353,0,0,1-9.21-49.85C-.92,232.72-.23,189.81.6,146.92c0-1,.07-2,.11-3,1-15.68,1.1-31.46,3.13-47,2.45-18.77,5.94-37.43,16.22-54,8.18-13.22,19.92-21.72,34-27.39,15.24-6.13,31.2-9.3,47.53-10.56C116.26,3.79,131,2.75,145.66,2c11.1-.59,22.23-.72,33.35-1.06,10.63-.32,21.26-1,31.87-.87,19.92.33,39.87.52,59.72,2,20.58,1.57,41.27,2.73,61.32,8.8,26.23,7.93,43.26,24.62,50.79,50.93a204.92,204.92,0,0,1,8,48.4c.54,13.57,1.35,27.13,2,40.69.17,1,.35,2.05.53,3.07.25,13.73.63,27.46.71,41.19.08,11.26-.2,22.52-.32,33.78ZM33.62,187.64l-.75,0c1,22.06,1.71,44.12,3,66.16.93,16.11,3.14,32.06,7.75,47.62,6.56,22.1,19.59,38.08,41.66,46.39,19.86,7.48,40.67,10,61.48,10.8,28.55,1.1,57.2.88,85.77,0,17.51-.52,35-2.73,52.4-5.13a97.58,97.58,0,0,0,39.68-14.17c17.08-10.94,24.56-27.89,28.92-46.69,6-25.91,5.73-52.44,6.61-78.74.8-23.88-1.13-47.83-1.43-71.76-.23-18.88-2.2-37.47-7.21-55.68C345.91,66.31,334,51.83,313.83,44.4c-15-5.55-30.67-7-46.31-8.36-15-1.3-30.12-1.76-45.19-2.1-32.08-.73-64.15-.28-96.09,3.09a290.25,290.25,0,0,0-37.25,6C64.68,48.9,48.81,63.92,41.87,88.38c-6,21.23-6.82,43-8.13,64.79C33.05,164.62,33.62,176.15,33.62,187.64Z"/><path class="cls-2" d="M286.8,197a89.41,89.41,0,0,1-89.73,89.93c-49.65-.17-88.63-37.63-90-86.7-1.55-55.46,41-89.14,80.33-92.29C253.41,102.61,287.82,155.5,286.8,197Zm-89-63c-37.26-1.25-64.31,30.2-64.36,62.81a63.84,63.84,0,0,0,62.56,64c17.8.5,33.48-6.22,46.22-19,14.74-14.82,19.41-32.93,17.52-53.27C257.2,161,231,133.05,197.82,133.93Z"/><path class="cls-2" d="M304.47,119c-12.22-.09-23.1-11.55-22.78-24.27.3-12.07,8.74-23.38,23.49-23.44,16.23-.06,24.25,11.71,24.34,24.05C329.62,108.6,318.38,119,304.47,119Z"/></g></g></svg>