<svg xmlns="http://www.w3.org/2000/svg" viewBox="0 0 576.14 390.36"><defs><style>.cls-1{fill:#cf423f;}</style></defs><g id="Layer_2" data-name="Layer 2"><g id="Layer_1-2" data-name="Layer 1"><path class="cls-1" d="M537.2,126.94c-14.69,6.17-28.44,11.94-42.18,17.73q-85.75,36.14-171.54,72.21a173.75,173.75,0,0,1-20.68,7.18c-10.7,3-21.25,1.08-31.32-2.85-15.58-6.07-31-12.59-46.45-19-22.83-9.43-45.67-18.84-68.44-28.42-18-7.58-36-15.41-54-23.14C74.13,138.43,45.69,126.05,17.11,114,5.39,109.07,1,100.16,1.19,88.15q.14-9.5,0-19C.89,50.88.47,32.6.21,14.32,0,3.06,1.91,1.08,13.19.17,15.85,0,18.52,0,21.19,0q269,0,537.94.06c3.64,0,7.29.55,10.93.83,4.12.32,5.73,2.94,6,6.68.12,1.66.07,3.33.07,5q0,181,0,362c0,13.18-.74,15.59-15.49,15.62q-158.22.38-316.46.22-114.23,0-228.47-.13c-14.91,0-15.74-1-15.72-16q.15-103,.34-206c0-1.63,0-3.25,0-5.77,4.18,1.65,7.64,2.95,11,4.39C19.24,170.24,27,173.83,35,177c3.49,1.37,4.59,3.28,4.59,7q.18,79,.64,158c.06,15.72.76,16.78,16.55,16.81q113.23.22,226.46.13,115.49,0,231,0c5.15,0,10.31-.37,15.45-.83,4.86-.43,7.55-3.14,7.53-8.2,0-1.5,0-3,0-4.5V126.94ZM288.48,33.42q-111.74,0-223.49,0c-5.32,0-10.66.25-16,.59-8,.51-9.73,2.49-9.79,10.59-.06,9.83.19,19.67-.21,29.49-.22,5.3,1.92,8.59,6.39,10.73,7.79,3.73,15.49,7.7,23.47,11,24.14,10,48.44,19.54,72.6,29.48,22.9,9.42,45.66,19.19,68.55,28.63,19.3,8,38.58,16,58.12,23.32,7.64,2.87,16.11,6,23.92,5.35,10.16-.79,20.46-4.17,30-8.18,39.07-16.5,77.86-33.66,116.75-50.58q47.4-20.61,94.83-41.17c2.71-1.17,3.69-2.65,3.65-5.6q-.22-17.74,0-35.49c0-4.82-2.2-7.15-6.79-7.4-6-.33-12-.74-18-.75Q400.48,33.38,288.48,33.42Z"/></g></g></svg>