<svg xmlns="http://www.w3.org/2000/svg" viewBox="0 0 411.33 398.16"><defs><style>.cls-1{fill:#cf433f;}.cls-2{fill:#cf8180;}</style></defs><g id="Layer_2" data-name="Layer 2"><g id="Layer_1-2" data-name="Layer 1"><path class="cls-1" d="M411.17,218.16l-1.8,13c-.34.67-.69,1.34-1,2-2.11,9.34-3.28,19-6.49,28Q363,369.69,250.22,394.37c-19.7,4.31-39.68,4.59-59.5,2.58-23.21-2.36-45.34-9.74-67-18.28-4.15-1.63-8.49-2.95-12.39-5.07-6.12-3.33-12-3.07-18.62-1.42-28.43,7-57,13.58-85.5,20.27-2.05.47-4.17.63-7.19,1.08,1.61-5.83,3.06-10.8,4.36-15.8,5-19.4,9.92-38.83,15-58.22,2.7-10.41,5.76-20.72,8.32-31.17a20.14,20.14,0,0,0,.05-8.81c-4.3-20.14-9.57-40.1-13-60.37-1.76-10.37-1-21.31-.36-31.93,3-51,23.13-94.42,59.14-130.4C102.87,27.45,138.59,9.56,179.3,2.5,194.37-.11,210.09-.35,225.43.32A175.86,175.86,0,0,1,287.12,14Q381.26,54,406.65,153.2c2.06,8.08,2.61,16.54,3.86,24.83.27,1.38.54,2.75.82,4.13q0,16.51,0,33Zm-377,141.93a14.67,14.67,0,0,0,2.68,0c22.59-5.47,45.3-10.53,67.72-16.63,11.35-3.09,21.45-3.35,32.51,1.86a182.15,182.15,0,0,0,58.86,16.49,144.94,144.94,0,0,0,44.13-1.71c63.41-13,106.3-49.8,127.68-110.94a137.37,137.37,0,0,0,6.55-63.76c-1.45-11-2.13-22.31-5.6-32.67C346.84,87.55,302.49,48.55,233.83,37.94a145.56,145.56,0,0,0-56.75,2.15C121.52,53.42,82.66,86.8,60.8,139.59c-10.67,25.79-13.44,52.91-10.23,80.46C52.05,232.81,55.3,245.37,58,258c1.57,7.35,1.94,14.29-.54,21.75C51.36,298,46,316.56,40.54,335.07,38.16,343.16,36.36,351.42,34.16,360.09Z"/><path class="cls-2" d="M411.32,182.16l-.81-4.13Z"/><path class="cls-2" d="M411.17,218.16l.15-3Z"/><path class="cls-2" d="M408.34,233.19c.34-.68.69-1.35,1-2C409,231.84,408.68,232.51,408.34,233.19Z"/><path class="cls-1" d="M115.41,151.91c-1.1-18.91,5.26-32.9,18.2-44,.63-.55,1.23-1.51,1.9-1.57,8-.74,16-1.48,24-1.81.88,0,2.14,2.37,2.74,3.84,5.78,14.18,11.41,28.42,17.22,42.59,1.24,3,.71,5.29-1.27,7.76-4.48,5.58-9,11.2-13,17.12-1.1,1.64-1.53,5.05-.56,6.56,17.93,28.27,40.47,51.06,73.69,61,3.5,1,5.49.21,7.57-2.54,4.52-6,9.42-11.65,13.94-17.63,2.45-3.23,5.17-3.78,8.67-2.14q21.24,10,42.51,19.87c2.58,1.2,4,2.83,3.42,5.83s-1,5.85-1.5,8.76c-3.27,17.66-11.44,27.68-37,32.71-15.45,3-29.78-1.18-44-6.64-22.5-8.65-43.14-20.71-60.35-37.37-14-13.6-26.11-29.25-38.77-44.23-9.48-11.21-13.33-25.16-17.34-38.86C114.57,157.72,115.41,153.81,115.41,151.91Z"/></g></g></svg>