<svg xmlns="http://www.w3.org/2000/svg" viewBox="0 0 806.29 251.3"><defs><style>.cls-1{fill:#f33924;}.cls-2{fill:#f33823;}.cls-3{fill:#f33a25;}.cls-4{fill:#f24b45;}.cls-5{fill:#f3dad9;}.cls-6{fill:#f35d51;}</style></defs><g id="Layer_2" data-name="Layer 2"><g id="Layer_1-2" data-name="Layer 1"><path class="cls-1" d="M631.21,33.42V79.47c2.58-1.86,4.16-2.9,5.64-4.08q33.87-26.85,67.67-53.79c2.81-2.25,4.56-2.62,7.44.08,9.11,8.53,18.56,16.71,28.44,25.53L680.29,97.42l63.47,89.74c-1.94.12-3.15.25-4.37.25-15.82,0-31.65,0-47.48.12-3.33,0-5.42-.94-7.34-3.8-11.89-17.68-24-35.22-36-52.8-1-1.48-2.1-2.91-3.42-4.71-4.29,3.57-8.44,6.64-12.07,10.24-1.26,1.26-1.67,3.83-1.69,5.81-.14,14.8-.07,29.6-.07,44.79H586.53V2.65h43.91V32.23Z"/><path class="cls-1" d="M378.3,61.53c-.33,17,0,34-1.13,50.87-2.5,36.19-28.17,65-64.55,73-7.83,1.72-16,3.31-23.94,2.81-33-2.11-65.88-22.22-77.61-54.34A62.16,62.16,0,0,1,207.53,114c-.69-35.41-.88-70.84-1.24-106.26,0-1,.09-1.94.15-3.19h44.71v9.3q0,24.48.1,49c0,13.7,0,27.41.14,41.11.19,17.8,8.18,29.68,24.94,37.08,23.57,10.42,49.08-5.26,54.26-22a40.28,40.28,0,0,0,1.88-11.24c.4-31.91.6-63.83.86-95.75,0-2.31,0-4.63,0-7.34h45V60.32c-.24.26-.47.52-.71.77Z"/><path class="cls-1" d="M395.57,186.38c.07-26,.09-52,.24-77.95.06-11.19,0-22.4.66-33.55a63.07,63.07,0,0,1,14.78-37.2C425.69,20.28,443.57,8.26,466.13,5,507.44-1,546,17.45,562.42,56.64c2.78,6.63,3.67,14.43,3.82,21.72.7,35.59.86,71.2,1.2,106.8a11.89,11.89,0,0,1-.32,1.77H522.81c0-10.37.06-20.49,0-30.61-.15-21.66-.12-43.32-.64-65-.27-11.61-1.16-23-10.66-32-19.37-18.44-53.17-16.11-67.05,10.11-3.42,6.45-3.76,15-3.86,22.63-.4,31.48-.17,63-.17,95.1h-44Z"/><path class="cls-1" d="M133.14,65.61c0-1-.09-3.28,0-5.61.27-6.35-.61-12-4.08-17.89-10.18-17.27,2-36.67,16.48-40.7,21.36-5.95,38.53,9.19,37.94,27.39a32.36,32.36,0,0,1-4.39,16.08,11.87,11.87,0,0,0-1.55,5.55c-.2,8.16.29,16.36-.26,24.49-.84,12.27-.19,24.91-6,36.32-2.77,5.44-5.71,11-9.5,15.68-15.18,19-35,31.11-58.94,34.2-28.24,3.64-52.58-6.21-73.21-25.7A73.64,73.64,0,0,1,7.52,95.57,75.76,75.76,0,0,1,6.4,82.26c-.19-7.66-.11-15.32-.08-23,0-6.61-.7-12.67-3.64-19.11C-7.08,18.83,11.75-.36,28.69,0c10.59.23,23.88,7,27.49,18.5,3,9.54,2.58,19.05-3.54,27.74A12.15,12.15,0,0,0,50.48,53c.13,10.93-.55,22.06,1.31,32.73,2.83,16.22,14.23,25.22,29.37,30.81,17.28,6.38,40.1-6.41,46.34-18.55a51.1,51.1,0,0,0,4.6-14.53C133,78.06,132.79,72.49,133.14,65.61Z"/><path class="cls-2" d="M805.88,187c-13.94,0-27.4,0-40.86,0-1.14,0-2.27-.17-3.71-.29V55.56h44.57Z"/><path class="cls-1" d="M131.37,211.53c0,22.17-17.65,40.44-39.74,39.75C67.48,250.53,52,232.67,51.7,211.19A39.54,39.54,0,0,1,91.24,171.4C114.31,171.06,131.37,188.38,131.37,211.53Z"/><path class="cls-3" d="M783.76.4c12.56,0,23,10,22.51,22.32-.5,13.83-10.63,22.81-22.78,22.8-12.54,0-23.14-10.37-23.16-22.63C760.32,11.27,771.28-1.23,783.76.4Z"/><path class="cls-4" d="M631.21,33.42l-.77-1.19Z"/><path class="cls-5" d="M378.3,61.53l-.69-.44c.24-.25.47-.51.71-.77C378.31,60.73,378.3,61.13,378.3,61.53Z"/><path class="cls-6" d="M395.57,186.38l.82.79Z"/></g></g></svg>