<svg xmlns="http://www.w3.org/2000/svg" viewBox="0 0 804.77 251.63"><defs><style>.cls-1{fill:#fc0000;}.cls-2{fill:#eb0081;}</style></defs><g id="Layer_2" data-name="Layer 2"><g id="Layer_1-2" data-name="Layer 1"><path class="cls-1" d="M199.93,5.37c12.58,2,24.23,3.94,33.35,14.07,8.09,9,12.49,18.68,12.41,30.68-.13,18.52.52,37.07-.23,55.57-.57,14,5.5,24,16.32,31.34,8.06,5.44,17.28,9.08,27.33,8.59,18-.87,36.65-12.09,40.64-27.75,1.66-6.51.94-13.64,1.23-20.49.06-1.47-.31-3-.31-4.44,0-14.16-.12-28.33,0-42.49.15-16.28,7.58-28.86,20.75-37.88,7.29-5,16-6.12,25.22-7V11c0,27.5.37,55-.16,82.49-.24,12.47-1,25.19-3.71,37.29-4.64,20.53-19.14,34.25-36.39,44.85-15.25,9.37-31.94,14.72-50.14,14.07a90,90,0,0,1-52.15-18.34c-7.28-5.52-13.68-12.39-19.68-19.34-8.68-10.06-12.51-22.24-12.77-35.5q-1-54.08-2-108.14C199.65,7.72,199.77,7.06,199.93,5.37Z"/><path class="cls-1" d="M568.65,188c-14.17-1.7-26.38-5.08-35.71-16.9-7.64-9.67-9.89-20.2-10.22-31.68-.28-9.49-.19-19,0-28.5.14-7.61.42-15.23,1-22.83,1.38-18.1-12.35-30.77-25.5-36.4-20.43-8.75-41.27-1-53.59,13.65-4.33,5.16-7,11.17-6.92,18,.25,18.44.86,36.88.84,55.32a57.28,57.28,0,0,1-2.48,18c-5.56,16.55-16.88,27.09-34.53,30-3,.51-6.1.85-9.86,1.36,0-11.75-.11-22.85,0-33.95.25-21.36.37-42.73,1.06-64.08.53-16.33,1.69-32.82,12-46.52C421.33,21.58,443,8.08,470.6,4.61c25.56-3.21,47.68,4.77,67.64,20.13,14,10.78,24.46,24.13,27.91,41.8a134.93,134.93,0,0,1,2.39,24.65C568.81,123.16,568.65,155.14,568.65,188Z"/><path class="cls-1" d="M686.67,188.87l-37.88-54.75c-1.21-1.75-2.45-3.47-4-5.6-3.35,2.56-6.86,4.94-10,7.77-1,.88-1.15,3-1.15,4.51-.09,14.33-.05,28.66-.05,43v5.64H587V7.61c9.91.69,19.13,3.16,26.67,9.71,12.76,11.07,19.75,24.85,19.08,42.23-.24,6.2.84,12.45,1.4,19.69L714,14.66c16.21,24.63,5.5,53.52-14.93,68.44C692.25,88,686.09,93.82,679.4,99.43l62.93,89.07-1,1.44-11.59-1.09Z"/><path class="cls-1" d="M6.64,67.66c0-2.66-.09-5.33,0-8,.27-6.81-.55-13-3.9-19.47C-5.63,24.12,6.2,3.44,23.74.55,36.6-1.58,46.46,3.27,53.19,13.26c6.89,10.22,6.39,21.39-.32,32.13a15,15,0,0,0-2.12,7.76c0,10,.64,19.9.84,29.85.35,17.14,15.09,29.82,30.06,33.7,21.72,5.64,44.37-8.26,49.33-26.89a49.57,49.57,0,0,0,1.59-10.7c.25-6.32.05-12.66.08-19,0-6.58-.47-12.61-3.83-19-9-16.92,1.63-36.88,20.43-40.53,11.54-2.25,21.07,1.61,28,10.48,7.66,9.89,8.64,21,2.44,32.32a13.55,13.55,0,0,0-1.93,5.43c-.49,10.77-1.07,21.56-1,32.33.14,21.46-7.25,39.35-22.94,54.27-13.45,12.8-29,21.29-47,24.92a77.16,77.16,0,0,1-45.64-4.67c-19.64-8.17-35.64-20.65-46.28-39.32C9.16,106.31,7.3,95.08,6.68,83.66,6.4,78.34,6.64,73,6.64,67.66Z"/><path class="cls-1" d="M758.05,58.71c15,1,26.71,7.21,35.69,18.95,7.65,10,10.62,21.53,10.81,33.66.4,24.64.12,49.3.11,74,0,1-.12,1.92-.2,3.14H758.05Z"/><path class="cls-1" d="M53.6,212.72C52.34,192.78,71.06,173,94.26,174.58c19.74,1.36,36.27,17.06,36.17,38.44-.11,21.9-16.81,38.64-39.12,38.61C70.4,251.6,52.44,233.48,53.6,212.72Z"/><path class="cls-1" d="M803.73,25.27c1.28,11.49-9.9,23-22.68,22.69-10.53-.22-22.65-10-22.27-22.63S767.93,3.27,781.49,2.7C793,2.23,804.86,13.25,803.73,25.27Z"/><path class="cls-2" d="M686.67,188.87l43.06,0a18.24,18.24,0,0,1-3.71.8q-17.82.09-35.63,0A19,19,0,0,1,686.67,188.87Z"/></g></g></svg>